# xmcd
#
# Track frame offsets: 
#        150
#        19512
#        27297
#        50052
#        69059
#        91839
#        109564
#        123652
#        137819
#        156632
#        173254
#        195682
#        212552
#
# Disc length: 3123 seconds
#
# Revision: 0
# Processed by: cddbd v1.5.2PL0 Copyright (c) Steve Scherf et al.
# Submitted via: ExactAudioCopy v0.95a5
#
DISCID=a80c310d
DTITLE=BERNARD ALLISON - Storms Of Life
DYEAR=2002
DGENRE=Blues
TTITLE0=Slip Slidin
TTITLE1='Storms Of Life
TTITLE2=Down South
TTITLE3=Just By Me Any Way You Want
TTITLE4=I Think I Love You Too Much
TTITLE5=Mean Town Blues
TTITLE6=Speed Slide
TTITLE7=I Wanna Drive You Home
TTITLE8=Snake Bit Again
TTITLE9=Reaching Out
TTITLE10=Fistful Of Dirt
TTITLE11=Help Me Through The Day
TTITLE12=Goodbye Liyyle Girl
EXTD=
EXTT0=
EXTT1=
EXTT2=
EXTT3=
EXTT4=
EXTT5=
EXTT6=
EXTT7=
EXTT8=
EXTT9=
EXTT10=
EXTT11=
EXTT12=
PLAYORDER=
